<svg
  aria-label=""
  role="img"
  viewBox="0 0 19 15"
  class="x1lliihq xffa9am x2lah0s x1jwls1v x1n2onr6 x17fnjtu x1yxark7"
  style="--fill: currentColor; --height: 20px; --width: 20px"
>
  <title></title>
  <path
    d="M0 7.40524C0 7.13901 0.0770649 6.91716 0.231195 6.73968C0.385324 6.55752 0.602507 6.43609 0.882743 6.37537C1.33579 6.2913 1.65806 6.12316 1.84956 5.87094C2.04105 5.61873 2.1368 5.22407 2.1368 4.68695V3.04056C2.1368 1.99435 2.38434 1.22603 2.87942 0.735619C3.37918 0.245206 4.14049 0 5.16335 0C5.37352 0 5.55101 0.023353 5.6958 0.070059C5.89196 0.130777 6.03675 0.221853 6.13016 0.343289C6.22357 0.464725 6.27028 0.611849 6.27028 0.784661C6.27028 1.13029 6.11615 1.3498 5.80789 1.44322C5.76586 1.45723 5.71681 1.4689 5.66077 1.47824C5.60939 1.48759 5.55568 1.49693 5.49963 1.50627C4.95784 1.5483 4.57719 1.70243 4.35767 1.96866C4.13815 2.23021 4.02839 2.65991 4.02839 3.25774V5.29646C4.02839 5.90831 3.85558 6.38938 3.50996 6.73968C3.169 7.08997 2.69961 7.29781 2.10177 7.3632C2.06908 7.36787 2.05273 7.38655 2.05273 7.41925C2.05273 7.44727 2.06908 7.46128 2.10177 7.46128C2.69961 7.52667 3.169 7.73685 3.50996 8.09181C3.85558 8.44211 4.02839 8.92318 4.02839 9.53503V11.5737C4.02839 12.1716 4.13815 12.6013 4.35767 12.8628C4.57719 13.1291 4.95784 13.2855 5.49963 13.3322C5.54634 13.3369 5.59071 13.3416 5.63274 13.3462C5.67478 13.3556 5.71681 13.3673 5.75885 13.3813C6.0998 13.4653 6.27028 13.6872 6.27028 14.0468C6.27028 14.215 6.22124 14.3621 6.12316 14.4882C6.02507 14.619 5.87561 14.7124 5.67478 14.7684C5.52999 14.8058 5.37586 14.8245 5.21239 14.8245C4.17085 14.8245 3.39786 14.5816 2.89344 14.0959C2.38901 13.6148 2.1368 12.8465 2.1368 11.7909V10.1445C2.1368 9.60275 2.04105 9.20575 1.84956 8.95354C1.65806 8.70133 1.33579 8.53319 0.882743 8.44911C0.602507 8.3884 0.385324 8.2693 0.231195 8.09181C0.0770649 7.90966 0 7.6808 0 7.40524ZM6.24226 8.61025C5.91531 8.61025 5.63041 8.49115 5.38754 8.25295C5.14934 8.01008 5.03024 7.72751 5.03024 7.40524C5.03024 7.19506 5.08395 6.99889 5.19137 6.81674C5.30347 6.62992 5.45059 6.48046 5.63274 6.36836C5.81957 6.25627 6.02274 6.20022 6.24226 6.20022C6.46177 6.20022 6.66261 6.25627 6.84476 6.36836C7.02692 6.48046 7.17171 6.62992 7.27913 6.81674C7.39122 6.99889 7.44727 7.19506 7.44727 7.40524C7.44727 7.72751 7.32817 8.01008 7.08997 8.25295C6.85177 8.49115 6.5692 8.61025 6.24226 8.61025ZM9.5 8.61025C9.17773 8.61025 8.89516 8.49115 8.65229 8.25295C8.41409 8.01008 8.29498 7.72751 8.29498 7.40524C8.29498 7.19506 8.35103 6.99889 8.46313 6.81674C8.57522 6.62992 8.72234 6.48046 8.9045 6.36836C9.08665 6.25627 9.28515 6.20022 9.5 6.20022C9.71952 6.20022 9.92035 6.25627 10.1025 6.36836C10.2847 6.48046 10.4294 6.62992 10.5369 6.81674C10.649 6.99889 10.705 7.19506 10.705 7.40524C10.705 7.61541 10.649 7.81391 10.5369 8.00074C10.4294 8.18289 10.2847 8.33001 10.1025 8.44211C9.92035 8.5542 9.71952 8.61025 9.5 8.61025ZM12.7577 8.61025C12.4308 8.61025 12.1482 8.49115 11.91 8.25295C11.6765 8.01008 11.5597 7.72751 11.5597 7.40524C11.5597 7.19506 11.6134 6.99889 11.7209 6.81674C11.8283 6.62992 11.9731 6.48046 12.1552 6.36836C12.3421 6.25627 12.5429 6.20022 12.7577 6.20022C12.9819 6.20022 13.1851 6.25627 13.3673 6.36836C13.5494 6.48046 13.6942 6.62992 13.8016 6.81674C13.9137 6.99889 13.9698 7.19506 13.9698 7.40524C13.9698 7.72751 13.8507 8.01008 13.6125 8.25295C13.3743 8.49115 13.0894 8.61025 12.7577 8.61025ZM19 7.40524C19 7.6808 18.9229 7.90966 18.7688 8.09181C18.6193 8.2693 18.4045 8.3884 18.1243 8.44911C17.6665 8.53319 17.3419 8.70133 17.1504 8.95354C16.9589 9.20575 16.8632 9.60275 16.8632 10.1445V11.7909C16.8632 12.8465 16.611 13.6148 16.1066 14.0959C15.6068 14.5816 14.8338 14.8245 13.7876 14.8245C13.6241 14.8245 13.4723 14.8058 13.3322 14.7684C13.1267 14.7124 12.9749 14.619 12.8768 14.4882C12.7788 14.3621 12.7297 14.215 12.7297 14.0468C12.7297 13.6872 12.9025 13.4653 13.2482 13.3813C13.2855 13.3673 13.3252 13.3556 13.3673 13.3462C13.4093 13.3416 13.456 13.3369 13.5074 13.3322C14.0445 13.2855 14.4228 13.1291 14.6423 12.8628C14.8665 12.6013 14.9786 12.1716 14.9786 11.5737V9.53503C14.9786 8.92318 15.1491 8.44211 15.49 8.09181C15.831 7.73685 16.3027 7.52667 16.9052 7.46128C16.9333 7.46128 16.9473 7.44727 16.9473 7.41925C16.9519 7.38655 16.9379 7.36787 16.9052 7.3632C16.3027 7.29781 15.831 7.08997 15.49 6.73968C15.1491 6.38938 14.9786 5.90831 14.9786 5.29646V3.25774C14.9786 2.65991 14.8665 2.23021 14.6423 1.96866C14.4228 1.70243 14.0445 1.5483 13.5074 1.50627C13.4467 1.49693 13.3906 1.48759 13.3392 1.47824C13.2879 1.4689 13.2411 1.45723 13.1991 1.44322C12.8862 1.3498 12.7297 1.13029 12.7297 0.784661C12.7297 0.611849 12.7764 0.464725 12.8698 0.343289C12.9679 0.221853 13.115 0.130777 13.3112 0.070059C13.456 0.023353 13.6311 0 13.8367 0C14.8642 0 15.6255 0.245206 16.1206 0.735619C16.6157 1.22603 16.8632 1.99435 16.8632 3.04056V4.68695C16.8632 5.22407 16.9589 5.61873 17.1504 5.87094C17.3466 6.12316 17.6712 6.2913 18.1243 6.37537C18.4045 6.43609 18.6193 6.55752 18.7688 6.73968C18.9229 6.91716 19 7.13901 19 7.40524Z"
    fill="currentColor"
  ></path>
</svg>
