<svg
  aria-label="Share"
  role="img"
  viewBox="0 0 37 40"
  class="x1lliihq xffa9am x2lah0s x1jwls1v x1n2onr6 x17fnjtu x1yxark7"
  style="--fill: transparent; --height: 48px; --width: 48px"
>
  <title>Share</title>
  <path
    d="M14.886 1.25367C14.1819 0.660758 13.1305 0.750879 12.5376 1.45496C11.9447 2.15904 12.0348 3.21046 12.7389 3.80337L15.1833 5.86185H10.0624C4.99981 5.86185 0.895752 9.96591 0.895752 15.0285V25.0285C0.895752 30.0911 4.99981 34.1952 10.0624 34.1952C10.9829 34.1952 11.7291 33.449 11.7291 32.5285C11.7291 31.608 10.9829 30.8619 10.0624 30.8619C6.84076 30.8619 4.22909 28.2502 4.22909 25.0285V15.0285C4.22909 11.8069 6.84076 9.19519 10.0624 9.19519H15.4958L12.6803 11.8013C12.0048 12.4266 11.964 13.4811 12.5893 14.1566C13.2146 14.8321 14.2691 14.8728 14.9446 14.2475L20.8821 8.75164C21.2328 8.42695 21.4273 7.96729 21.4161 7.48944C21.4049 7.01159 21.1891 6.56155 20.8235 6.25367L14.886 1.25367Z"
    fill="url(#paint0_linear_4272_8419)"
  ></path>
  <path
    d="M22.1139 38.8037C22.8179 39.3966 23.8694 39.3065 24.4623 38.6024C25.0552 37.8983 24.9651 36.8469 24.261 36.254L21.8165 34.1955H26.9374C32 34.1955 36.1041 30.0915 36.1041 25.0289V15.0289C36.1041 9.96624 32 5.86219 26.9374 5.86219C26.0169 5.86219 25.2708 6.60838 25.2708 7.52885C25.2708 8.44933 26.0169 9.19552 26.9374 9.19552C30.1591 9.19552 32.7708 11.8072 32.7708 15.0289V25.0289C32.7708 28.2505 30.1591 30.8622 26.9374 30.8622H21.5041L24.3196 28.2561C24.9951 27.6308 25.0358 26.5763 24.4105 25.9008C23.7853 25.2253 22.7308 25.1846 22.0553 25.8098L16.1178 31.3057C15.767 31.6304 15.5725 32.0901 15.5837 32.5679C15.5949 33.0458 15.8107 33.4958 16.1764 33.8037L22.1139 38.8037Z"
    fill="url(#paint1_linear_4272_8419)"
  ></path>
  <defs>
    <linearGradient
      gradientUnits="userSpaceOnUse"
      id="paint0_linear_4272_8419"
      x1="0.895752"
      x2="39.0913"
      y1="39.1956"
      y2="4.11417"
    >
      <stop stop-color="#FFD600"></stop>
      <stop offset="0.239583" stop-color="#FF7A00"></stop>
      <stop offset="0.489583" stop-color="#FF0069"></stop>
      <stop offset="0.75" stop-color="#D300C5"></stop>
      <stop offset="1" stop-color="#7638FA"></stop>
    </linearGradient>
    <linearGradient
      gradientUnits="userSpaceOnUse"
      id="paint1_linear_4272_8419"
      x1="0.895752"
      x2="39.0913"
      y1="39.1956"
      y2="4.11417"
    >
      <stop stop-color="#FFD600"></stop>
      <stop offset="0.239583" stop-color="#FF7A00"></stop>
      <stop offset="0.489583" stop-color="#FF0069"></stop>
      <stop offset="0.75" stop-color="#D300C5"></stop>
      <stop offset="1" stop-color="#7638FA"></stop>
    </linearGradient>
  </defs>
</svg>
